<svg width="64" height="77" viewBox="0 0 64 77" fill="none" xmlns="http://www.w3.org/2000/svg">
<rect y="6" width="64" height="64" fill="black"/>
<path d="M42.9091 30.5C42.5909 29.3939 42.1439 28.4167 41.5682 27.5682C40.9924 26.7045 40.2879 25.9773 39.4545 25.3864C38.6364 24.7803 37.697 24.3182 36.6364 24C35.5909 23.6818 34.4318 23.5227 33.1591 23.5227C30.7803 23.5227 28.6894 24.1136 26.8864 25.2955C25.0985 26.4773 23.7045 28.197 22.7045 30.4545C21.7045 32.697 21.2045 35.4394 21.2045 38.6818C21.2045 41.9242 21.697 44.6818 22.6818 46.9545C23.6667 49.2273 25.0606 50.9621 26.8636 52.1591C28.6667 53.3409 30.7955 53.9318 33.25 53.9318C35.4773 53.9318 37.3788 53.5379 38.9545 52.75C40.5455 51.947 41.7576 50.8182 42.5909 49.3636C43.4394 47.9091 43.8636 46.1894 43.8636 44.2045L45.8636 44.5H33.8636V37.0909H53.3409V42.9545C53.3409 47.0455 52.4773 50.5606 50.75 53.5C49.0227 56.4242 46.6439 58.6818 43.6136 60.2727C40.5833 61.8485 37.1136 62.6364 33.2045 62.6364C28.8409 62.6364 25.0076 61.6742 21.7045 59.75C18.4015 57.8106 15.8258 55.0606 13.9773 51.5C12.1439 47.9242 11.2273 43.6818 11.2273 38.7727C11.2273 35 11.7727 31.6364 12.8636 28.6818C13.9697 25.7121 15.5152 23.197 17.5 21.1364C19.4848 19.0758 21.7955 17.5076 24.4318 16.4318C27.0682 15.3561 29.9242 14.8182 33 14.8182C35.6364 14.8182 38.0909 15.2045 40.3636 15.9773C42.6364 16.7348 44.6515 17.8106 46.4091 19.2045C48.1818 20.5985 49.6288 22.2576 50.75 24.1818C51.8712 26.0909 52.5909 28.197 52.9091 30.5H42.9091Z" fill="#EF4444"/>
</svg>
